<svg viewBox="0 0 24 24" aria-hidden="true" xmlns="http://www.w3.org/2000/svg">
  <path fill="#ffffff" d="M12 2.2c-2.6 0-2.94.01-3.97.06-1.02.05-1.72.21-2.33.44-.63.24-1.17.57-1.7 1.1-.53.53-.86 1.07-1.1 1.7-.23.61-.39 1.31-.44 2.33-.04 1.03-.06 1.36-.06 3.97s.01 2.94.06 3.97c.05 1.02.21 1.72.44 2.33.24.63.57 1.17 1.1 1.7.53.53 1.07.86 1.7 1.1.61.23 1.31.39 2.33.44 1.03.04 1.36.06 3.97.06s2.94-.01 3.97-.06c1.02-.05 1.72-.21 2.33-.44.63-.24 1.17-.57 1.7-1.1.53-.53.86-1.07 1.1-1.7.23-.61.39-1.31.44-2.33.04-1.03.06-1.36.06-3.97s-.01-2.94-.06-3.97c-.05-1.02-.21-1.72-.44-2.33-.24-.63-.57-1.17-1.1-1.7-.53-.53-1.07-.86-1.7-1.1-.61-.23-1.31-.39-2.33-.44C14.94 2.21 14.6 2.2 12 2.2Zm0 3.02c2.5 0 2.8.01 3.79.06.88.04 1.36.19 1.68.32.4.16.7.35 1.02.67.32.32.51.63.67 1.02.13.32.28.8.32 1.68.05.99.06 1.29.06 3.79s-.01 2.8-.06 3.79c-.04.88-.19 1.36-.32 1.68-.16.4-.35.7-.67 1.02-.32.32-.63.51-1.02.67-.32.13-.8.28-1.68.32-.99.05-1.29.06-3.79.06s-2.8-.01-3.79-.06c-.88-.04-1.36-.19-1.68-.32a2.9 2.9 0 0 1-1.02-.67 2.9 2.9 0 0 1-.67-1.02c-.13-.32-.28-.8-.32-1.68-.05-.99-.06-1.29-.06-3.79s.01-2.8.06-3.79c.04-.88.19-1.36.32-1.68.16-.4.35-.7.67-1.02.32-.32.63-.51 1.02-.67.32-.13.8-.28 1.68-.32.99-.05 1.29-.06 3.79-.06Zm0 2.98a4.8 4.8 0 1 0 0 9.6 4.8 4.8 0 0 0 0-9.6Zm0 7.9a3.1 3.1 0 1 1 0-6.2 3.1 3.1 0 0 1 0 6.2Zm4.98-7.93a1.12 1.12 0 1 0 0-2.24 1.12 1.12 0 0 0 0 2.24Z"/>
</svg>
